# xmcd
#
# Track frame offsets: 
#        150
#        21029
#        39645
#        64928
#        88587
#        110479
#        136785
#        159047
#        177951
#        206443
#
# Disc length: 2973 seconds
#
# Revision: 0
# Processed by: cddbd v1.5.2PL0 Copyright (c) Steve Scherf et al.
# Submitted via: ExactAudioCopy v1.3
#
DISCID=790b9b0a
DTITLE=Dive Bar Dropouts - Dive Bar Dropouts
DYEAR=2019
DGENRE=Blues Rock
TTITLE0=The Future Don't Look (Like It Used To Be)
TTITLE1=Life On The Shelf
TTITLE2=I Love To Watch Her Go
TTITLE3=Home In My Heart
TTITLE4=Since I Lost You
TTITLE5=I Got The Blues To See Me Through
TTITLE6=Stay
TTITLE7=In A Minute
TTITLE8=Something Else Comes Up
TTITLE9=Sweet Thang
EXTD=
EXTT0=
EXTT1=
EXTT2=
EXTT3=
EXTT4=
EXTT5=
EXTT6=
EXTT7=
EXTT8=
EXTT9=
PLAYORDER=
